<?xml version="1.0" standalone="no"?><!DOCTYPE svg PUBLIC "-//W3C//DTD SVG 1.1//EN" "http://www.w3.org/Graphics/SVG/1.1/DTD/svg11.dtd"><svg t="1663606163628" class="icon" viewBox="0 0 1024 1024" version="1.1" xmlns="http://www.w3.org/2000/svg" p-id="5768" xmlns:xlink="http://www.w3.org/1999/xlink" width="200" height="200"><path d="M812.718332 133.564939h-34.839807c-6.919962-43.383759-41.839768-78.687564-86.607519-85.055528L357.144859 1.013674a100.94344 100.94344 0 0 0-80.199555 23.49587 99.919446 99.919446 0 0 0-34.719808 75.67958v33.375815h-33.551813C153.073991 133.564939 108.002241 178.40469 108.002241 233.732384v66.783629c0 18.447898 15.023917 33.391815 33.559814 33.391815h36.639797l58.159677 599.884672C241.5215 985.224215 284.585261 1024 336.512973 1024h348.334068c51.943712 0 95.007473-38.783785 100.183445-90.319499l58.143677-599.772673h36.639797c18.535897 0 33.559814-14.943917 33.559814-33.391815v-66.783629c0-55.319693-45.07175-100.167444-100.671442-100.167445z m-503.365208-33.383815c0-9.823946 4.103977-18.783896 11.567936-25.22386a33.167816 33.167816 0 0 1 26.735852-7.831956l334.118146 47.495736a35.383804 35.383804 0 0 1 26.455854 18.943895h-398.877788v-33.383815zM267.201358 556.522593h79.071561a166.231078 166.231078 0 0 0-3.375981 33.391815c0 11.431937 1.167994 22.599875 3.375981 33.391815H273.681322l-6.479964-66.78363z m451.037498 370.629944a33.375815 33.375815 0 0 1-33.383815 30.063833H336.528973c-17.311904 0-31.663824-12.927928-33.375815-29.951833L280.161286 690.089852h96.399465c30.63983 40.519775 79.35956 66.78363 134.135256 66.78363 54.775696 0 103.495426-26.263854 134.135256-66.78363h96.399465l-22.983872 237.062685zM519.879956 490.146961c48.079733 4.263976 86.799519 42.783763 91.079495 90.623498 5.583969 62.399654-46.735741 114.463365-109.447393 108.903395-48.079733-4.263976-86.799519-42.783763-91.079495-90.623497-5.583969-62.399654 46.735741-114.463365 109.447393-108.903396z m227.830737 133.159262h-72.607598a166.231078 166.231078 0 0 0 0-66.78363h79.079562l-6.479964 66.78363z m12.943928-133.56726H644.831263c-30.63983-40.527775-79.35956-66.78363-134.135256-66.783629-54.775696 0-103.495426 26.255854-134.143256 66.783629H260.737394l-15.111916-155.831135h530.141059l-15.111916 155.831135zM846.270146 267.124198H175.121869v-33.391814c0-18.407898 15.055916-33.391815 33.559813-33.391815h604.02865c18.503897 0 33.559814 14.983917 33.559814 33.391815v33.391814z" fill="#20A0FF" p-id="5769"></path></svg>